<?xml version="1.0" encoding="utf-8" standalone="no"?>
<!DOCTYPE svg PUBLIC "-//W3C//DTD SVG 1.1//EN"
  "http://www.w3.org/Graphics/SVG/1.1/DTD/svg11.dtd">
<svg xmlns:xlink="http://www.w3.org/1999/xlink" width="494.203125pt" height="337.449063pt" viewBox="0 0 494.203125 337.449063" xmlns="http://www.w3.org/2000/svg" version="1.1">
 <metadata>
  <rdf:RDF xmlns:dc="http://purl.org/dc/elements/1.1/" xmlns:cc="http://creativecommons.org/ns#" xmlns:rdf="http://www.w3.org/1999/02/22-rdf-syntax-ns#">
   <cc:Work>
    <dc:type rdf:resource="http://purl.org/dc/dcmitype/StillImage"/>
    <dc:date>2025-04-26T22:38:47.483448</dc:date>
    <dc:format>image/svg+xml</dc:format>
    <dc:creator>
     <cc:Agent>
      <dc:title>Matplotlib v3.9.3, https://matplotlib.org/</dc:title>
     </cc:Agent>
    </dc:creator>
   </cc:Work>
  </rdf:RDF>
 </metadata>
 <defs>
  <style type="text/css">*{stroke-linejoin: round; stroke-linecap: butt}</style>
 </defs>
 <g id="figure_1">
  <g id="patch_1">
   <path d="M 0 337.449063 
L 494.203125 337.449063 
L 494.203125 0 
L 0 0 
z
" style="fill: #ffffff"/>
  </g>
  <g id="axes_1">
   <g id="patch_2">
    <path d="M 40.603125 299.7225 
L 487.003125 299.7225 
L 487.003125 22.5225 
L 40.603125 22.5225 
z
" style="fill: #ffffff"/>
   </g>
   <g id="matplotlib.axis_1">
    <g id="xtick_1">
     <g id="line2d_1">
      <defs>
       <path id="m76d23c181a" d="M 0 0 
L 0 3.5 
" style="stroke: #000000; stroke-width: 0.8"/>
      </defs>
      <g>
       <use xlink:href="#m76d23c181a" x="60.25847" y="299.7225" style="stroke: #000000; stroke-width: 0.8"/>
      </g>
     </g>
     <g id="text_1">
      <!-- 5.0 -->
      <g transform="translate(52.306908 314.320938) scale(0.1 -0.1)">
       <defs>
        <path id="DejaVuSans-35" d="M 691 4666 
L 3169 4666 
L 3169 4134 
L 1269 4134 
L 1269 2991 
Q 1406 3038 1543 3061 
Q 1681 3084 1819 3084 
Q 2600 3084 3056 2656 
Q 3513 2228 3513 1497 
Q 3513 744 3044 326 
Q 2575 -91 1722 -91 
Q 1428 -91 1123 -41 
Q 819 9 494 109 
L 494 744 
Q 775 591 1075 516 
Q 1375 441 1709 441 
Q 2250 441 2565 725 
Q 2881 1009 2881 1497 
Q 2881 1984 2565 2268 
Q 2250 2553 1709 2553 
Q 1456 2553 1204 2497 
Q 953 2441 691 2322 
L 691 4666 
z
" transform="scale(0.015625)"/>
        <path id="DejaVuSans-2e" d="M 684 794 
L 1344 794 
L 1344 0 
L 684 0 
L 684 794 
z
" transform="scale(0.015625)"/>
        <path id="DejaVuSans-30" d="M 2034 4250 
Q 1547 4250 1301 3770 
Q 1056 3291 1056 2328 
Q 1056 1369 1301 889 
Q 1547 409 2034 409 
Q 2525 409 2770 889 
Q 3016 1369 3016 2328 
Q 3016 3291 2770 3770 
Q 2525 4250 2034 4250 
z
M 2034 4750 
Q 2819 4750 3233 4129 
Q 3647 3509 3647 2328 
Q 3647 1150 3233 529 
Q 2819 -91 2034 -91 
Q 1250 -91 836 529 
Q 422 1150 422 2328 
Q 422 3509 836 4129 
Q 1250 4750 2034 4750 
z
" transform="scale(0.015625)"/>
       </defs>
       <use xlink:href="#DejaVuSans-35"/>
       <use xlink:href="#DejaVuSans-2e" x="63.623047"/>
       <use xlink:href="#DejaVuSans-30" x="95.410156"/>
      </g>
     </g>
    </g>
    <g id="xtick_2">
     <g id="line2d_2">
      <g>
       <use xlink:href="#m76d23c181a" x="119.325747" y="299.7225" style="stroke: #000000; stroke-width: 0.8"/>
      </g>
     </g>
     <g id="text_2">
      <!-- 7.5 -->
      <g transform="translate(111.374185 314.320938) scale(0.1 -0.1)">
       <defs>
        <path id="DejaVuSans-37" d="M 525 4666 
L 3525 4666 
L 3525 4397 
L 1831 0 
L 1172 0 
L 2766 4134 
L 525 4134 
L 525 4666 
z
" transform="scale(0.015625)"/>
       </defs>
       <use xlink:href="#DejaVuSans-37"/>
       <use xlink:href="#DejaVuSans-2e" x="63.623047"/>
       <use xlink:href="#DejaVuSans-35" x="95.410156"/>
      </g>
     </g>
    </g>
    <g id="xtick_3">
     <g id="line2d_3">
      <g>
       <use xlink:href="#m76d23c181a" x="178.393024" y="299.7225" style="stroke: #000000; stroke-width: 0.8"/>
      </g>
     </g>
     <g id="text_3">
      <!-- 10.0 -->
      <g transform="translate(167.260211 314.320938) scale(0.1 -0.1)">
       <defs>
        <path id="DejaVuSans-31" d="M 794 531 
L 1825 531 
L 1825 4091 
L 703 3866 
L 703 4441 
L 1819 4666 
L 2450 4666 
L 2450 531 
L 3481 531 
L 3481 0 
L 794 0 
L 794 531 
z
" transform="scale(0.015625)"/>
       </defs>
       <use xlink:href="#DejaVuSans-31"/>
       <use xlink:href="#DejaVuSans-30" x="63.623047"/>
       <use xlink:href="#DejaVuSans-2e" x="127.246094"/>
       <use xlink:href="#DejaVuSans-30" x="159.033203"/>
      </g>
     </g>
    </g>
    <g id="xtick_4">
     <g id="line2d_4">
      <g>
       <use xlink:href="#m76d23c181a" x="237.460301" y="299.7225" style="stroke: #000000; stroke-width: 0.8"/>
      </g>
     </g>
     <g id="text_4">
      <!-- 12.5 -->
      <g transform="translate(226.327488 314.320938) scale(0.1 -0.1)">
       <defs>
        <path id="DejaVuSans-32" d="M 1228 531 
L 3431 531 
L 3431 0 
L 469 0 
L 469 531 
Q 828 903 1448 1529 
Q 2069 2156 2228 2338 
Q 2531 2678 2651 2914 
Q 2772 3150 2772 3378 
Q 2772 3750 2511 3984 
Q 2250 4219 1831 4219 
Q 1534 4219 1204 4116 
Q 875 4013 500 3803 
L 500 4441 
Q 881 4594 1212 4672 
Q 1544 4750 1819 4750 
Q 2544 4750 2975 4387 
Q 3406 4025 3406 3419 
Q 3406 3131 3298 2873 
Q 3191 2616 2906 2266 
Q 2828 2175 2409 1742 
Q 1991 1309 1228 531 
z
" transform="scale(0.015625)"/>
       </defs>
       <use xlink:href="#DejaVuSans-31"/>
       <use xlink:href="#DejaVuSans-32" x="63.623047"/>
       <use xlink:href="#DejaVuSans-2e" x="127.246094"/>
       <use xlink:href="#DejaVuSans-35" x="159.033203"/>
      </g>
     </g>
    </g>
    <g id="xtick_5">
     <g id="line2d_5">
      <g>
       <use xlink:href="#m76d23c181a" x="296.527578" y="299.7225" style="stroke: #000000; stroke-width: 0.8"/>
      </g>
     </g>
     <g id="text_5">
      <!-- 15.0 -->
      <g transform="translate(285.394765 314.320938) scale(0.1 -0.1)">
       <use xlink:href="#DejaVuSans-31"/>
       <use xlink:href="#DejaVuSans-35" x="63.623047"/>
       <use xlink:href="#DejaVuSans-2e" x="127.246094"/>
       <use xlink:href="#DejaVuSans-30" x="159.033203"/>
      </g>
     </g>
    </g>
    <g id="xtick_6">
     <g id="line2d_6">
      <g>
       <use xlink:href="#m76d23c181a" x="355.594855" y="299.7225" style="stroke: #000000; stroke-width: 0.8"/>
      </g>
     </g>
     <g id="text_6">
      <!-- 17.5 -->
      <g transform="translate(344.462042 314.320938) scale(0.1 -0.1)">
       <use xlink:href="#DejaVuSans-31"/>
       <use xlink:href="#DejaVuSans-37" x="63.623047"/>
       <use xlink:href="#DejaVuSans-2e" x="127.246094"/>
       <use xlink:href="#DejaVuSans-35" x="159.033203"/>
      </g>
     </g>
    </g>
    <g id="xtick_7">
     <g id="line2d_7">
      <g>
       <use xlink:href="#m76d23c181a" x="414.662132" y="299.7225" style="stroke: #000000; stroke-width: 0.8"/>
      </g>
     </g>
     <g id="text_7">
      <!-- 20.0 -->
      <g transform="translate(403.529319 314.320938) scale(0.1 -0.1)">
       <use xlink:href="#DejaVuSans-32"/>
       <use xlink:href="#DejaVuSans-30" x="63.623047"/>
       <use xlink:href="#DejaVuSans-2e" x="127.246094"/>
       <use xlink:href="#DejaVuSans-30" x="159.033203"/>
      </g>
     </g>
    </g>
    <g id="xtick_8">
     <g id="line2d_8">
      <g>
       <use xlink:href="#m76d23c181a" x="473.729408" y="299.7225" style="stroke: #000000; stroke-width: 0.8"/>
      </g>
     </g>
     <g id="text_8">
      <!-- 22.5 -->
      <g transform="translate(462.596596 314.320938) scale(0.1 -0.1)">
       <use xlink:href="#DejaVuSans-32"/>
       <use xlink:href="#DejaVuSans-32" x="63.623047"/>
       <use xlink:href="#DejaVuSans-2e" x="127.246094"/>
       <use xlink:href="#DejaVuSans-35" x="159.033203"/>
      </g>
     </g>
    </g>
    <g id="text_9">
     <!-- População da cidade (em dezenas de mil) -->
     <g transform="translate(159.304688 328.169375) scale(0.1 -0.1)">
      <defs>
       <path id="DejaVuSans-50" d="M 1259 4147 
L 1259 2394 
L 2053 2394 
Q 2494 2394 2734 2622 
Q 2975 2850 2975 3272 
Q 2975 3691 2734 3919 
Q 2494 4147 2053 4147 
L 1259 4147 
z
M 628 4666 
L 2053 4666 
Q 2838 4666 3239 4311 
Q 3641 3956 3641 3272 
Q 3641 2581 3239 2228 
Q 2838 1875 2053 1875 
L 1259 1875 
L 1259 0 
L 628 0 
L 628 4666 
z
" transform="scale(0.015625)"/>
       <path id="DejaVuSans-6f" d="M 1959 3097 
Q 1497 3097 1228 2736 
Q 959 2375 959 1747 
Q 959 1119 1226 758 
Q 1494 397 1959 397 
Q 2419 397 2687 759 
Q 2956 1122 2956 1747 
Q 2956 2369 2687 2733 
Q 2419 3097 1959 3097 
z
M 1959 3584 
Q 2709 3584 3137 3096 
Q 3566 2609 3566 1747 
Q 3566 888 3137 398 
Q 2709 -91 1959 -91 
Q 1206 -91 779 398 
Q 353 888 353 1747 
Q 353 2609 779 3096 
Q 1206 3584 1959 3584 
z
" transform="scale(0.015625)"/>
       <path id="DejaVuSans-70" d="M 1159 525 
L 1159 -1331 
L 581 -1331 
L 581 3500 
L 1159 3500 
L 1159 2969 
Q 1341 3281 1617 3432 
Q 1894 3584 2278 3584 
Q 2916 3584 3314 3078 
Q 3713 2572 3713 1747 
Q 3713 922 3314 415 
Q 2916 -91 2278 -91 
Q 1894 -91 1617 61 
Q 1341 213 1159 525 
z
M 3116 1747 
Q 3116 2381 2855 2742 
Q 2594 3103 2138 3103 
Q 1681 3103 1420 2742 
Q 1159 2381 1159 1747 
Q 1159 1113 1420 752 
Q 1681 391 2138 391 
Q 2594 391 2855 752 
Q 3116 1113 3116 1747 
z
" transform="scale(0.015625)"/>
       <path id="DejaVuSans-75" d="M 544 1381 
L 544 3500 
L 1119 3500 
L 1119 1403 
Q 1119 906 1312 657 
Q 1506 409 1894 409 
Q 2359 409 2629 706 
Q 2900 1003 2900 1516 
L 2900 3500 
L 3475 3500 
L 3475 0 
L 2900 0 
L 2900 538 
Q 2691 219 2414 64 
Q 2138 -91 1772 -91 
Q 1169 -91 856 284 
Q 544 659 544 1381 
z
M 1991 3584 
L 1991 3584 
z
" transform="scale(0.015625)"/>
       <path id="DejaVuSans-6c" d="M 603 4863 
L 1178 4863 
L 1178 0 
L 603 0 
L 603 4863 
z
" transform="scale(0.015625)"/>
       <path id="DejaVuSans-61" d="M 2194 1759 
Q 1497 1759 1228 1600 
Q 959 1441 959 1056 
Q 959 750 1161 570 
Q 1363 391 1709 391 
Q 2188 391 2477 730 
Q 2766 1069 2766 1631 
L 2766 1759 
L 2194 1759 
z
M 3341 1997 
L 3341 0 
L 2766 0 
L 2766 531 
Q 2569 213 2275 61 
Q 1981 -91 1556 -91 
Q 1019 -91 701 211 
Q 384 513 384 1019 
Q 384 1609 779 1909 
Q 1175 2209 1959 2209 
L 2766 2209 
L 2766 2266 
Q 2766 2663 2505 2880 
Q 2244 3097 1772 3097 
Q 1472 3097 1187 3025 
Q 903 2953 641 2809 
L 641 3341 
Q 956 3463 1253 3523 
Q 1550 3584 1831 3584 
Q 2591 3584 2966 3190 
Q 3341 2797 3341 1997 
z
" transform="scale(0.015625)"/>
       <path id="DejaVuSans-e7" d="M 3122 3366 
L 3122 2828 
Q 2878 2963 2633 3030 
Q 2388 3097 2138 3097 
Q 1578 3097 1268 2742 
Q 959 2388 959 1747 
Q 959 1106 1268 751 
Q 1578 397 2138 397 
Q 2388 397 2633 464 
Q 2878 531 3122 666 
L 3122 134 
Q 2881 22 2623 -34 
Q 2366 -91 2075 -91 
Q 1284 -91 818 406 
Q 353 903 353 1747 
Q 353 2603 823 3093 
Q 1294 3584 2113 3584 
Q 2378 3584 2631 3529 
Q 2884 3475 3122 3366 
z
M 2311 0 
Q 2482 -194 2566 -358 
Q 2651 -522 2651 -672 
Q 2651 -950 2463 -1092 
Q 2276 -1234 1907 -1234 
Q 1764 -1234 1628 -1215 
Q 1492 -1197 1357 -1159 
L 1357 -750 
Q 1464 -803 1579 -826 
Q 1695 -850 1842 -850 
Q 2026 -850 2120 -775 
Q 2214 -700 2214 -556 
Q 2214 -463 2146 -327 
Q 2079 -191 1939 0 
L 2311 0 
z
" transform="scale(0.015625)"/>
       <path id="DejaVuSans-e3" d="M 2194 1759 
Q 1497 1759 1228 1600 
Q 959 1441 959 1056 
Q 959 750 1161 570 
Q 1363 391 1709 391 
Q 2188 391 2477 730 
Q 2766 1069 2766 1631 
L 2766 1759 
L 2194 1759 
z
M 3341 1997 
L 3341 0 
L 2766 0 
L 2766 531 
Q 2569 213 2275 61 
Q 1981 -91 1556 -91 
Q 1019 -91 701 211 
Q 384 513 384 1019 
Q 384 1609 779 1909 
Q 1175 2209 1959 2209 
L 2766 2209 
L 2766 2266 
Q 2766 2663 2505 2880 
Q 2244 3097 1772 3097 
Q 1472 3097 1187 3025 
Q 903 2953 641 2809 
L 641 3341 
Q 956 3463 1253 3523 
Q 1550 3584 1831 3584 
Q 2591 3584 2966 3190 
Q 3341 2797 3341 1997 
z
M 1844 4281 
L 1665 4453 
Q 1597 4516 1545 4545 
Q 1494 4575 1453 4575 
Q 1334 4575 1278 4461 
Q 1222 4347 1215 4091 
L 825 4091 
Q 831 4513 990 4742 
Q 1150 4972 1434 4972 
Q 1553 4972 1653 4928 
Q 1753 4884 1869 4781 
L 2047 4609 
Q 2115 4547 2167 4517 
Q 2219 4488 2259 4488 
Q 2378 4488 2434 4602 
Q 2490 4716 2497 4972 
L 2887 4972 
Q 2881 4550 2721 4320 
Q 2562 4091 2278 4091 
Q 2159 4091 2059 4134 
Q 1959 4178 1844 4281 
z
" transform="scale(0.015625)"/>
       <path id="DejaVuSans-20" transform="scale(0.015625)"/>
       <path id="DejaVuSans-64" d="M 2906 2969 
L 2906 4863 
L 3481 4863 
L 3481 0 
L 2906 0 
L 2906 525 
Q 2725 213 2448 61 
Q 2172 -91 1784 -91 
Q 1150 -91 751 415 
Q 353 922 353 1747 
Q 353 2572 751 3078 
Q 1150 3584 1784 3584 
Q 2172 3584 2448 3432 
Q 2725 3281 2906 2969 
z
M 947 1747 
Q 947 1113 1208 752 
Q 1469 391 1925 391 
Q 2381 391 2643 752 
Q 2906 1113 2906 1747 
Q 2906 2381 2643 2742 
Q 2381 3103 1925 3103 
Q 1469 3103 1208 2742 
Q 947 2381 947 1747 
z
" transform="scale(0.015625)"/>
       <path id="DejaVuSans-63" d="M 3122 3366 
L 3122 2828 
Q 2878 2963 2633 3030 
Q 2388 3097 2138 3097 
Q 1578 3097 1268 2742 
Q 959 2388 959 1747 
Q 959 1106 1268 751 
Q 1578 397 2138 397 
Q 2388 397 2633 464 
Q 2878 531 3122 666 
L 3122 134 
Q 2881 22 2623 -34 
Q 2366 -91 2075 -91 
Q 1284 -91 818 406 
Q 353 903 353 1747 
Q 353 2603 823 3093 
Q 1294 3584 2113 3584 
Q 2378 3584 2631 3529 
Q 2884 3475 3122 3366 
z
" transform="scale(0.015625)"/>
       <path id="DejaVuSans-69" d="M 603 3500 
L 1178 3500 
L 1178 0 
L 603 0 
L 603 3500 
z
M 603 4863 
L 1178 4863 
L 1178 4134 
L 603 4134 
L 603 4863 
z
" transform="scale(0.015625)"/>
       <path id="DejaVuSans-65" d="M 3597 1894 
L 3597 1613 
L 953 1613 
Q 991 1019 1311 708 
Q 1631 397 2203 397 
Q 2534 397 2845 478 
Q 3156 559 3463 722 
L 3463 178 
Q 3153 47 2828 -22 
Q 2503 -91 2169 -91 
Q 1331 -91 842 396 
Q 353 884 353 1716 
Q 353 2575 817 3079 
Q 1281 3584 2069 3584 
Q 2775 3584 3186 3129 
Q 3597 2675 3597 1894 
z
M 3022 2063 
Q 3016 2534 2758 2815 
Q 2500 3097 2075 3097 
Q 1594 3097 1305 2825 
Q 1016 2553 972 2059 
L 3022 2063 
z
" transform="scale(0.015625)"/>
       <path id="DejaVuSans-28" d="M 1984 4856 
Q 1566 4138 1362 3434 
Q 1159 2731 1159 2009 
Q 1159 1288 1364 580 
Q 1569 -128 1984 -844 
L 1484 -844 
Q 1016 -109 783 600 
Q 550 1309 550 2009 
Q 550 2706 781 3412 
Q 1013 4119 1484 4856 
L 1984 4856 
z
" transform="scale(0.015625)"/>
       <path id="DejaVuSans-6d" d="M 3328 2828 
Q 3544 3216 3844 3400 
Q 4144 3584 4550 3584 
Q 5097 3584 5394 3201 
Q 5691 2819 5691 2113 
L 5691 0 
L 5113 0 
L 5113 2094 
Q 5113 2597 4934 2840 
Q 4756 3084 4391 3084 
Q 3944 3084 3684 2787 
Q 3425 2491 3425 1978 
L 3425 0 
L 2847 0 
L 2847 2094 
Q 2847 2600 2669 2842 
Q 2491 3084 2119 3084 
Q 1678 3084 1418 2786 
Q 1159 2488 1159 1978 
L 1159 0 
L 581 0 
L 581 3500 
L 1159 3500 
L 1159 2956 
Q 1356 3278 1631 3431 
Q 1906 3584 2284 3584 
Q 2666 3584 2933 3390 
Q 3200 3197 3328 2828 
z
" transform="scale(0.015625)"/>
       <path id="DejaVuSans-7a" d="M 353 3500 
L 3084 3500 
L 3084 2975 
L 922 459 
L 3084 459 
L 3084 0 
L 275 0 
L 275 525 
L 2438 3041 
L 353 3041 
L 353 3500 
z
" transform="scale(0.015625)"/>
       <path id="DejaVuSans-6e" d="M 3513 2113 
L 3513 0 
L 2938 0 
L 2938 2094 
Q 2938 2591 2744 2837 
Q 2550 3084 2163 3084 
Q 1697 3084 1428 2787 
Q 1159 2491 1159 1978 
L 1159 0 
L 581 0 
L 581 3500 
L 1159 3500 
L 1159 2956 
Q 1366 3272 1645 3428 
Q 1925 3584 2291 3584 
Q 2894 3584 3203 3211 
Q 3513 2838 3513 2113 
z
" transform="scale(0.015625)"/>
       <path id="DejaVuSans-73" d="M 2834 3397 
L 2834 2853 
Q 2591 2978 2328 3040 
Q 2066 3103 1784 3103 
Q 1356 3103 1142 2972 
Q 928 2841 928 2578 
Q 928 2378 1081 2264 
Q 1234 2150 1697 2047 
L 1894 2003 
Q 2506 1872 2764 1633 
Q 3022 1394 3022 966 
Q 3022 478 2636 193 
Q 2250 -91 1575 -91 
Q 1294 -91 989 -36 
Q 684 19 347 128 
L 347 722 
Q 666 556 975 473 
Q 1284 391 1588 391 
Q 1994 391 2212 530 
Q 2431 669 2431 922 
Q 2431 1156 2273 1281 
Q 2116 1406 1581 1522 
L 1381 1569 
Q 847 1681 609 1914 
Q 372 2147 372 2553 
Q 372 3047 722 3315 
Q 1072 3584 1716 3584 
Q 2034 3584 2315 3537 
Q 2597 3491 2834 3397 
z
" transform="scale(0.015625)"/>
       <path id="DejaVuSans-29" d="M 513 4856 
L 1013 4856 
Q 1481 4119 1714 3412 
Q 1947 2706 1947 2009 
Q 1947 1309 1714 600 
Q 1481 -109 1013 -844 
L 513 -844 
Q 928 -128 1133 580 
Q 1338 1288 1338 2009 
Q 1338 2731 1133 3434 
Q 928 4138 513 4856 
z
" transform="scale(0.015625)"/>
      </defs>
      <use xlink:href="#DejaVuSans-50"/>
      <use xlink:href="#DejaVuSans-6f" x="56.677734"/>
      <use xlink:href="#DejaVuSans-70" x="117.859375"/>
      <use xlink:href="#DejaVuSans-75" x="181.335938"/>
      <use xlink:href="#DejaVuSans-6c" x="244.714844"/>
      <use xlink:href="#DejaVuSans-61" x="272.498047"/>
      <use xlink:href="#DejaVuSans-e7" x="333.777344"/>
      <use xlink:href="#DejaVuSans-e3" x="388.757812"/>
      <use xlink:href="#DejaVuSans-6f" x="450.037109"/>
      <use xlink:href="#DejaVuSans-20" x="511.21875"/>
      <use xlink:href="#DejaVuSans-64" x="543.005859"/>
      <use xlink:href="#DejaVuSans-61" x="606.482422"/>
      <use xlink:href="#DejaVuSans-20" x="667.761719"/>
      <use xlink:href="#DejaVuSans-63" x="699.548828"/>
      <use xlink:href="#DejaVuSans-69" x="754.529297"/>
      <use xlink:href="#DejaVuSans-64" x="782.3125"/>
      <use xlink:href="#DejaVuSans-61" x="845.789062"/>
      <use xlink:href="#DejaVuSans-64" x="907.068359"/>
      <use xlink:href="#DejaVuSans-65" x="970.544922"/>
      <use xlink:href="#DejaVuSans-20" x="1032.068359"/>
      <use xlink:href="#DejaVuSans-28" x="1063.855469"/>
      <use xlink:href="#DejaVuSans-65" x="1102.869141"/>
      <use xlink:href="#DejaVuSans-6d" x="1164.392578"/>
      <use xlink:href="#DejaVuSans-20" x="1261.804688"/>
      <use xlink:href="#DejaVuSans-64" x="1293.591797"/>
      <use xlink:href="#DejaVuSans-65" x="1357.068359"/>
      <use xlink:href="#DejaVuSans-7a" x="1418.591797"/>
      <use xlink:href="#DejaVuSans-65" x="1471.082031"/>
      <use xlink:href="#DejaVuSans-6e" x="1532.605469"/>
      <use xlink:href="#DejaVuSans-61" x="1595.984375"/>
      <use xlink:href="#DejaVuSans-73" x="1657.263672"/>
      <use xlink:href="#DejaVuSans-20" x="1709.363281"/>
      <use xlink:href="#DejaVuSans-64" x="1741.150391"/>
      <use xlink:href="#DejaVuSans-65" x="1804.626953"/>
      <use xlink:href="#DejaVuSans-20" x="1866.150391"/>
      <use xlink:href="#DejaVuSans-6d" x="1897.9375"/>
      <use xlink:href="#DejaVuSans-69" x="1995.349609"/>
      <use xlink:href="#DejaVuSans-6c" x="2023.132812"/>
      <use xlink:href="#DejaVuSans-29" x="2050.916016"/>
     </g>
    </g>
   </g>
   <g id="matplotlib.axis_2">
    <g id="ytick_1">
     <g id="line2d_9">
      <defs>
       <path id="m96592da836" d="M 0 0 
L -3.5 0 
" style="stroke: #000000; stroke-width: 0.8"/>
      </defs>
      <g>
       <use xlink:href="#m96592da836" x="40.603125" y="261.941944" style="stroke: #000000; stroke-width: 0.8"/>
      </g>
     </g>
     <g id="text_10">
      <!-- 0 -->
      <g transform="translate(27.240625 265.741163) scale(0.1 -0.1)">
       <use xlink:href="#DejaVuSans-30"/>
      </g>
     </g>
    </g>
    <g id="ytick_2">
     <g id="line2d_10">
      <g>
       <use xlink:href="#m96592da836" x="40.603125" y="214.975562" style="stroke: #000000; stroke-width: 0.8"/>
      </g>
     </g>
     <g id="text_11">
      <!-- 5 -->
      <g transform="translate(27.240625 218.774781) scale(0.1 -0.1)">
       <use xlink:href="#DejaVuSans-35"/>
      </g>
     </g>
    </g>
    <g id="ytick_3">
     <g id="line2d_11">
      <g>
       <use xlink:href="#m96592da836" x="40.603125" y="168.009181" style="stroke: #000000; stroke-width: 0.8"/>
      </g>
     </g>
     <g id="text_12">
      <!-- 10 -->
      <g transform="translate(20.878125 171.808399) scale(0.1 -0.1)">
       <use xlink:href="#DejaVuSans-31"/>
       <use xlink:href="#DejaVuSans-30" x="63.623047"/>
      </g>
     </g>
    </g>
    <g id="ytick_4">
     <g id="line2d_12">
      <g>
       <use xlink:href="#m96592da836" x="40.603125" y="121.042799" style="stroke: #000000; stroke-width: 0.8"/>
      </g>
     </g>
     <g id="text_13">
      <!-- 15 -->
      <g transform="translate(20.878125 124.842018) scale(0.1 -0.1)">
       <use xlink:href="#DejaVuSans-31"/>
       <use xlink:href="#DejaVuSans-35" x="63.623047"/>
      </g>
     </g>
    </g>
    <g id="ytick_5">
     <g id="line2d_13">
      <g>
       <use xlink:href="#m96592da836" x="40.603125" y="74.076417" style="stroke: #000000; stroke-width: 0.8"/>
      </g>
     </g>
     <g id="text_14">
      <!-- 20 -->
      <g transform="translate(20.878125 77.875636) scale(0.1 -0.1)">
       <use xlink:href="#DejaVuSans-32"/>
       <use xlink:href="#DejaVuSans-30" x="63.623047"/>
      </g>
     </g>
    </g>
    <g id="ytick_6">
     <g id="line2d_14">
      <g>
       <use xlink:href="#m96592da836" x="40.603125" y="27.110035" style="stroke: #000000; stroke-width: 0.8"/>
      </g>
     </g>
     <g id="text_15">
      <!-- 25 -->
      <g transform="translate(20.878125 30.909254) scale(0.1 -0.1)">
       <use xlink:href="#DejaVuSans-32"/>
       <use xlink:href="#DejaVuSans-35" x="63.623047"/>
      </g>
     </g>
    </g>
    <g id="text_16">
     <!-- Lucro (em dezenas de mil dólares) -->
     <g transform="translate(14.798437 247.534219) rotate(-90) scale(0.1 -0.1)">
      <defs>
       <path id="DejaVuSans-4c" d="M 628 4666 
L 1259 4666 
L 1259 531 
L 3531 531 
L 3531 0 
L 628 0 
L 628 4666 
z
" transform="scale(0.015625)"/>
       <path id="DejaVuSans-72" d="M 2631 2963 
Q 2534 3019 2420 3045 
Q 2306 3072 2169 3072 
Q 1681 3072 1420 2755 
Q 1159 2438 1159 1844 
L 1159 0 
L 581 0 
L 581 3500 
L 1159 3500 
L 1159 2956 
Q 1341 3275 1631 3429 
Q 1922 3584 2338 3584 
Q 2397 3584 2469 3576 
Q 2541 3569 2628 3553 
L 2631 2963 
z
" transform="scale(0.015625)"/>
       <path id="DejaVuSans-f3" d="M 1959 3097 
Q 1497 3097 1228 2736 
Q 959 2375 959 1747 
Q 959 1119 1226 758 
Q 1494 397 1959 397 
Q 2419 397 2687 759 
Q 2956 1122 2956 1747 
Q 2956 2369 2687 2733 
Q 2419 3097 1959 3097 
z
M 1959 3584 
Q 2709 3584 3137 3096 
Q 3566 2609 3566 1747 
Q 3566 888 3137 398 
Q 2709 -91 1959 -91 
Q 1206 -91 779 398 
Q 353 888 353 1747 
Q 353 2609 779 3096 
Q 1206 3584 1959 3584 
z
M 2394 5119 
L 3016 5119 
L 1998 3944 
L 1519 3944 
L 2394 5119 
z
" transform="scale(0.015625)"/>
      </defs>
      <use xlink:href="#DejaVuSans-4c"/>
      <use xlink:href="#DejaVuSans-75" x="53.962891"/>
      <use xlink:href="#DejaVuSans-63" x="117.341797"/>
      <use xlink:href="#DejaVuSans-72" x="172.322266"/>
      <use xlink:href="#DejaVuSans-6f" x="211.185547"/>
      <use xlink:href="#DejaVuSans-20" x="272.367188"/>
      <use xlink:href="#DejaVuSans-28" x="304.154297"/>
      <use xlink:href="#DejaVuSans-65" x="343.167969"/>
      <use xlink:href="#DejaVuSans-6d" x="404.691406"/>
      <use xlink:href="#DejaVuSans-20" x="502.103516"/>
      <use xlink:href="#DejaVuSans-64" x="533.890625"/>
      <use xlink:href="#DejaVuSans-65" x="597.367188"/>
      <use xlink:href="#DejaVuSans-7a" x="658.890625"/>
      <use xlink:href="#DejaVuSans-65" x="711.380859"/>
      <use xlink:href="#DejaVuSans-6e" x="772.904297"/>
      <use xlink:href="#DejaVuSans-61" x="836.283203"/>
      <use xlink:href="#DejaVuSans-73" x="897.5625"/>
      <use xlink:href="#DejaVuSans-20" x="949.662109"/>
      <use xlink:href="#DejaVuSans-64" x="981.449219"/>
      <use xlink:href="#DejaVuSans-65" x="1044.925781"/>
      <use xlink:href="#DejaVuSans-20" x="1106.449219"/>
      <use xlink:href="#DejaVuSans-6d" x="1138.236328"/>
      <use xlink:href="#DejaVuSans-69" x="1235.648438"/>
      <use xlink:href="#DejaVuSans-6c" x="1263.431641"/>
      <use xlink:href="#DejaVuSans-20" x="1291.214844"/>
      <use xlink:href="#DejaVuSans-64" x="1323.001953"/>
      <use xlink:href="#DejaVuSans-f3" x="1386.478516"/>
      <use xlink:href="#DejaVuSans-6c" x="1447.660156"/>
      <use xlink:href="#DejaVuSans-61" x="1475.443359"/>
      <use xlink:href="#DejaVuSans-72" x="1536.722656"/>
      <use xlink:href="#DejaVuSans-65" x="1575.585938"/>
      <use xlink:href="#DejaVuSans-73" x="1637.109375"/>
      <use xlink:href="#DejaVuSans-29" x="1689.208984"/>
     </g>
    </g>
   </g>
   <g id="line2d_15">
    <defs>
     <path id="m75d730c34e" d="M -2.5 2.5 
L 2.5 -2.5 
M -2.5 -2.5 
L 2.5 2.5 
" style="stroke: #ff0000"/>
    </defs>
    <g clip-path="url(#pa68d0e9b3e)">
     <use xlink:href="#m75d730c34e" x="86.486704" y="96.695426" style="fill: #ff0000; stroke: #ff0000"/>
     <use xlink:href="#m75d730c34e" x="72.726391" y="176.179452" style="fill: #ff0000; stroke: #ff0000"/>
     <use xlink:href="#m75d730c34e" x="143.392118" y="133.611003" style="fill: #ff0000; stroke: #ff0000"/>
     <use xlink:href="#m75d730c34e" x="107.587898" y="150.594046" style="fill: #ff0000; stroke: #ff0000"/>
     <use xlink:href="#m75d730c34e" x="80.572888" y="197.848802" style="fill: #ff0000; stroke: #ff0000"/>
     <use xlink:href="#m75d730c34e" x="140.185947" y="150.293461" style="fill: #ff0000; stroke: #ff0000"/>
     <use xlink:href="#m75d730c34e" x="118.768152" y="221.097161" style="fill: #ff0000; stroke: #ff0000"/>
     <use xlink:href="#m75d730c34e" x="144.79792" y="149.222628" style="fill: #ff0000; stroke: #ff0000"/>
     <use xlink:href="#m75d730c34e" x="95.372785" y="199.958531" style="fill: #ff0000; stroke: #ff0000"/>
     <use xlink:href="#m75d730c34e" x="61.5485" y="226.091566" style="fill: #ff0000; stroke: #ff0000"/>
     <use xlink:href="#m75d730c34e" x="77.050116" y="231.393131" style="fill: #ff0000; stroke: #ff0000"/>
     <use xlink:href="#m75d730c34e" x="276.77548" y="116.299194" style="fill: #ff0000; stroke: #ff0000"/>
     <use xlink:href="#m75d730c34e" x="77.600623" y="232.305218" style="fill: #ff0000; stroke: #ff0000"/>
     <use xlink:href="#m75d730c34e" x="140.788433" y="194.068008" style="fill: #ff0000; stroke: #ff0000"/>
     <use xlink:href="#m75d730c34e" x="75.396232" y="255.214667" style="fill: #ff0000; stroke: #ff0000"/>
     <use xlink:href="#m75d730c34e" x="69.22252" y="228.944304" style="fill: #ff0000; stroke: #ff0000"/>
     <use xlink:href="#m75d730c34e" x="92.518654" y="212.112492" style="fill: #ff0000; stroke: #ff0000"/>
     <use xlink:href="#m75d730c34e" x="63.332331" y="256.674477" style="fill: #ff0000; stroke: #ff0000"/>
     <use xlink:href="#m75d730c34e" x="94.035502" y="227.639577" style="fill: #ff0000; stroke: #ff0000"/>
     <use xlink:href="#m75d730c34e" x="109.185077" y="211.31876" style="fill: #ff0000; stroke: #ff0000"/>
     <use xlink:href="#m75d730c34e" x="88.35323" y="232.460207" style="fill: #ff0000; stroke: #ff0000"/>
     <use xlink:href="#m75d730c34e" x="421.041397" y="57.478498" style="fill: #ff0000; stroke: #ff0000"/>
     <use xlink:href="#m75d730c34e" x="71.838019" y="221.898407" style="fill: #ff0000; stroke: #ff0000"/>
     <use xlink:href="#m75d730c34e" x="91.590117" y="213.214323" style="fill: #ff0000; stroke: #ff0000"/>
     <use xlink:href="#m75d730c34e" x="73.605312" y="232.98717" style="fill: #ff0000; stroke: #ff0000"/>
     <use xlink:href="#m75d730c34e" x="389.735741" y="49.296954" style="fill: #ff0000; stroke: #ff0000"/>
     <use xlink:href="#m75d730c34e" x="245.209928" y="135.12332" style="fill: #ff0000; stroke: #ff0000"/>
     <use xlink:href="#m75d730c34e" x="201.003978" y="195.750344" style="fill: #ff0000; stroke: #ff0000"/>
     <use xlink:href="#m75d730c34e" x="253.432093" y="123.935928" style="fill: #ff0000; stroke: #ff0000"/>
     <use xlink:href="#m75d730c34e" x="466.712216" y="35.1225" style="fill: #ff0000; stroke: #ff0000"/>
     <use xlink:href="#m75d730c34e" x="66.221902" y="273.401741" style="fill: #ff0000; stroke: #ff0000"/>
     <use xlink:href="#m75d730c34e" x="97.811082" y="205.614223" style="fill: #ff0000; stroke: #ff0000"/>
     <use xlink:href="#m75d730c34e" x="160.630312" y="147.963929" style="fill: #ff0000; stroke: #ff0000"/>
     <use xlink:href="#m75d730c34e" x="81.328949" y="244.569079" style="fill: #ff0000; stroke: #ff0000"/>
     <use xlink:href="#m75d730c34e" x="136.126843" y="200.485494" style="fill: #ff0000; stroke: #ff0000"/>
     <use xlink:href="#m75d730c34e" x="129.56565" y="219.086999" style="fill: #ff0000; stroke: #ff0000"/>
     <use xlink:href="#m75d730c34e" x="133.405023" y="223.275461" style="fill: #ff0000; stroke: #ff0000"/>
     <use xlink:href="#m75d730c34e" x="74.583466" y="230.072436" style="fill: #ff0000; stroke: #ff0000"/>
     <use xlink:href="#m75d730c34e" x="245.398943" y="166.910167" style="fill: #ff0000; stroke: #ff0000"/>
     <use xlink:href="#m75d730c34e" x="92.235131" y="210.303347" style="fill: #ff0000; stroke: #ff0000"/>
     <use xlink:href="#m75d730c34e" x="69.87226" y="256.713928" style="fill: #ff0000; stroke: #ff0000"/>
     <use xlink:href="#m75d730c34e" x="104.73613" y="225.200144" style="fill: #ff0000; stroke: #ff0000"/>
     <use xlink:href="#m75d730c34e" x="218.747788" y="211.355394" style="fill: #ff0000; stroke: #ff0000"/>
     <use xlink:href="#m75d730c34e" x="78.538611" y="239.016714" style="fill: #ff0000; stroke: #ff0000"/>
     <use xlink:href="#m75d730c34e" x="126.997405" y="198.708286" style="fill: #ff0000; stroke: #ff0000"/>
     <use xlink:href="#m75d730c34e" x="109.711957" y="252.113759" style="fill: #ff0000; stroke: #ff0000"/>
     <use xlink:href="#m75d730c34e" x="61.917079" y="213.719681" style="fill: #ff0000; stroke: #ff0000"/>
     <use xlink:href="#m75d730c34e" x="79.193076" y="244.620742" style="fill: #ff0000; stroke: #ff0000"/>
     <use xlink:href="#m75d730c34e" x="218.558772" y="186.755342" style="fill: #ff0000; stroke: #ff0000"/>
     <use xlink:href="#m75d730c34e" x="73.054805" y="252.380528" style="fill: #ff0000; stroke: #ff0000"/>
     <use xlink:href="#m75d730c34e" x="120.275549" y="198.533571" style="fill: #ff0000; stroke: #ff0000"/>
     <use xlink:href="#m75d730c34e" x="67.528471" y="244.662073" style="fill: #ff0000; stroke: #ff0000"/>
     <use xlink:href="#m75d730c34e" x="117.527739" y="221.658878" style="fill: #ff0000; stroke: #ff0000"/>
     <use xlink:href="#m75d730c34e" x="121.761682" y="214.99341" style="fill: #ff0000; stroke: #ff0000"/>
     <use xlink:href="#m75d730c34e" x="91.748417" y="248.572494" style="fill: #ff0000; stroke: #ff0000"/>
     <use xlink:href="#m75d730c34e" x="92.365079" y="275.290729" style="fill: #ff0000; stroke: #ff0000"/>
     <use xlink:href="#m75d730c34e" x="90.36388" y="238.687949" style="fill: #ff0000; stroke: #ff0000"/>
     <use xlink:href="#m75d730c34e" x="75.372605" y="218.693421" style="fill: #ff0000; stroke: #ff0000"/>
     <use xlink:href="#m75d730c34e" x="162.095181" y="224.722026" style="fill: #ff0000; stroke: #ff0000"/>
     <use xlink:href="#m75d730c34e" x="165.48328" y="211.085807" style="fill: #ff0000; stroke: #ff0000"/>
     <use xlink:href="#m75d730c34e" x="150.640855" y="213.384341" style="fill: #ff0000; stroke: #ff0000"/>
     <use xlink:href="#m75d730c34e" x="64.494775" y="268.919176" style="fill: #ff0000; stroke: #ff0000"/>
     <use xlink:href="#m75d730c34e" x="444.88095" y="93.529892" style="fill: #ff0000; stroke: #ff0000"/>
     <use xlink:href="#m75d730c34e" x="294.353902" y="148.715391" style="fill: #ff0000; stroke: #ff0000"/>
     <use xlink:href="#m75d730c34e" x="390.066517" y="101.749009" style="fill: #ff0000; stroke: #ff0000"/>
     <use xlink:href="#m75d730c34e" x="112.667684" y="216.05391" style="fill: #ff0000; stroke: #ff0000"/>
     <use xlink:href="#m75d730c34e" x="138.111504" y="207.985086" style="fill: #ff0000; stroke: #ff0000"/>
     <use xlink:href="#m75d730c34e" x="183.968975" y="188.905463" style="fill: #ff0000; stroke: #ff0000"/>
     <use xlink:href="#m75d730c34e" x="72.057749" y="252.386164" style="fill: #ff0000; stroke: #ff0000"/>
     <use xlink:href="#m75d730c34e" x="422.718908" y="64.758287" style="fill: #ff0000; stroke: #ff0000"/>
     <use xlink:href="#m75d730c34e" x="181.606284" y="199.195797" style="fill: #ff0000; stroke: #ff0000"/>
     <use xlink:href="#m75d730c34e" x="115.415493" y="224.125553" style="fill: #ff0000; stroke: #ff0000"/>
     <use xlink:href="#m75d730c34e" x="84.031868" y="249.93358" style="fill: #ff0000; stroke: #ff0000"/>
     <use xlink:href="#m75d730c34e" x="112.849611" y="230.558068" style="fill: #ff0000; stroke: #ff0000"/>
     <use xlink:href="#m75d730c34e" x="60.894034" y="287.1225" style="fill: #ff0000; stroke: #ff0000"/>
     <use xlink:href="#m75d730c34e" x="96.830565" y="259.154208" style="fill: #ff0000; stroke: #ff0000"/>
     <use xlink:href="#m75d730c34e" x="120.237746" y="225.453762" style="fill: #ff0000; stroke: #ff0000"/>
     <use xlink:href="#m75d730c34e" x="61.120852" y="208.387118" style="fill: #ff0000; stroke: #ff0000"/>
     <use xlink:href="#m75d730c34e" x="184.866798" y="198.512906" style="fill: #ff0000; stroke: #ff0000"/>
     <use xlink:href="#m75d730c34e" x="62.803088" y="242.614339" style="fill: #ff0000; stroke: #ff0000"/>
     <use xlink:href="#m75d730c34e" x="77.487214" y="257.437586" style="fill: #ff0000; stroke: #ff0000"/>
     <use xlink:href="#m75d730c34e" x="64.70978" y="260.023743" style="fill: #ff0000; stroke: #ff0000"/>
     <use xlink:href="#m75d730c34e" x="92.289473" y="255.567573" style="fill: #ff0000; stroke: #ff0000"/>
     <use xlink:href="#m75d730c34e" x="172.92812" y="191.083764" style="fill: #ff0000; stroke: #ff0000"/>
     <use xlink:href="#m75d730c34e" x="96.074504" y="211.748033" style="fill: #ff0000; stroke: #ff0000"/>
     <use xlink:href="#m75d730c34e" x="143.359041" y="222.100362" style="fill: #ff0000; stroke: #ff0000"/>
     <use xlink:href="#m75d730c34e" x="159.023683" y="198.085512" style="fill: #ff0000; stroke: #ff0000"/>
     <use xlink:href="#m75d730c34e" x="83.932635" y="253.234847" style="fill: #ff0000; stroke: #ff0000"/>
     <use xlink:href="#m75d730c34e" x="72.553915" y="260.514166" style="fill: #ff0000; stroke: #ff0000"/>
     <use xlink:href="#m75d730c34e" x="61.661909" y="235.439754" style="fill: #ff0000; stroke: #ff0000"/>
     <use xlink:href="#m75d730c34e" x="76.979235" y="244.61041" style="fill: #ff0000; stroke: #ff0000"/>
     <use xlink:href="#m75d730c34e" x="122.553183" y="221.589368" style="fill: #ff0000; stroke: #ff0000"/>
     <use xlink:href="#m75d730c34e" x="80.830421" y="194.283114" style="fill: #ff0000; stroke: #ff0000"/>
     <use xlink:href="#m75d730c34e" x="67.474129" y="243.278443" style="fill: #ff0000; stroke: #ff0000"/>
     <use xlink:href="#m75d730c34e" x="138.071338" y="260.58424" style="fill: #ff0000; stroke: #ff0000"/>
     <use xlink:href="#m75d730c34e" x="258.582759" y="176.884887" style="fill: #ff0000; stroke: #ff0000"/>
     <use xlink:href="#m75d730c34e" x="70.581068" y="256.145823" style="fill: #ff0000; stroke: #ff0000"/>
    </g>
   </g>
   <g id="line2d_16">
    <path d="M 86.486704 227.158104 
L 72.726391 233.244609 
L 143.392118 201.987523 
L 107.587898 217.824558 
L 80.572888 229.773921 
L 140.185947 203.405687 
L 118.768152 212.879273 
L 144.79792 201.365704 
L 95.372785 223.227585 
L 61.5485 238.188849 
L 77.050116 231.332125 
L 276.77548 142.988977 
L 77.600623 231.088623 
L 140.788433 203.139193 
L 75.396232 232.063676 
L 69.22252 234.794452 
L 92.518654 224.490033 
L 63.332331 237.399818 
L 94.035502 223.819096 
L 109.185077 217.118088 
L 88.35323 226.332496 
L 421.041397 79.176825 
L 71.838019 233.637556 
L 91.590117 224.900746 
L 73.605312 232.855841 
L 389.735741 93.024041 
L 245.209928 156.951151 
L 201.003978 176.504465 
L 253.432093 153.314297 
L 466.712216 58.975565 
L 66.221902 236.121694 
L 97.811082 222.149069 
L 160.630312 194.362671 
L 81.328949 229.439498 
L 136.126843 205.201122 
L 129.56565 208.10329 
L 133.405023 206.405046 
L 74.583466 232.423181 
L 245.398943 156.867545 
L 92.235131 224.615442 
L 69.87226 234.507057 
L 104.73613 219.085961 
L 218.747788 168.655967 
L 78.538611 230.673729 
L 126.997405 209.239284 
L 109.711957 216.885037 
L 61.917079 238.025817 
L 79.193076 230.384244 
L 218.558772 168.739573 
L 73.054805 233.099343 
L 120.275549 212.212516 
L 67.528471 235.543769 
L 117.527739 213.427936 
L 121.761682 211.555165 
L 91.748417 224.830727 
L 92.365079 224.557963 
L 90.36388 225.443139 
L 75.372605 232.074127 
L 162.095181 193.714726 
L 165.48328 192.216091 
L 150.640855 198.781239 
L 64.494775 236.885643 
L 444.88095 68.632039 
L 294.353902 135.213634 
L 390.066517 92.877731 
L 112.667684 215.577651 
L 138.111504 204.323261 
L 183.968975 184.039441 
L 72.057749 233.540364 
L 422.718908 78.434823 
L 181.606284 185.084514 
L 115.415493 214.362231 
L 84.031868 228.243935 
L 112.849611 215.49718 
L 60.894034 238.478334 
L 96.830565 222.582775 
L 120.237746 212.229237 
L 61.120852 238.378007 
L 184.866798 183.642313 
L 62.803088 237.633915 
L 77.487214 231.138787 
L 64.70978 236.790541 
L 92.289473 224.591405 
L 172.92812 188.923066 
L 96.074504 222.917198 
L 143.359041 202.002154 
L 159.023683 195.07332 
L 83.932635 228.287828 
L 72.553915 233.320899 
L 61.661909 238.138685 
L 76.979235 231.363477 
L 122.553183 211.205066 
L 80.830421 229.660008 
L 67.474129 235.567806 
L 138.071338 204.341027 
L 258.582759 151.036038 
L 70.581068 234.193535 
" clip-path="url(#pa68d0e9b3e)" style="fill: none; stroke: #0000ff; stroke-width: 2; stroke-linecap: square"/>
   </g>
   <g id="patch_3">
    <path d="M 40.603125 299.7225 
L 40.603125 22.5225 
" style="fill: none; stroke: #000000; stroke-width: 0.8; stroke-linejoin: miter; stroke-linecap: square"/>
   </g>
   <g id="patch_4">
    <path d="M 487.003125 299.7225 
L 487.003125 22.5225 
" style="fill: none; stroke: #000000; stroke-width: 0.8; stroke-linejoin: miter; stroke-linecap: square"/>
   </g>
   <g id="patch_5">
    <path d="M 40.603125 299.7225 
L 487.003125 299.7225 
" style="fill: none; stroke: #000000; stroke-width: 0.8; stroke-linejoin: miter; stroke-linecap: square"/>
   </g>
   <g id="patch_6">
    <path d="M 40.603125 22.5225 
L 487.003125 22.5225 
" style="fill: none; stroke: #000000; stroke-width: 0.8; stroke-linejoin: miter; stroke-linecap: square"/>
   </g>
   <g id="text_17">
    <!-- Ajuste da Regressão Linear -->
    <g transform="translate(182.1825 16.5225) scale(0.12 -0.12)">
     <defs>
      <path id="DejaVuSans-41" d="M 2188 4044 
L 1331 1722 
L 3047 1722 
L 2188 4044 
z
M 1831 4666 
L 2547 4666 
L 4325 0 
L 3669 0 
L 3244 1197 
L 1141 1197 
L 716 0 
L 50 0 
L 1831 4666 
z
" transform="scale(0.015625)"/>
      <path id="DejaVuSans-6a" d="M 603 3500 
L 1178 3500 
L 1178 -63 
Q 1178 -731 923 -1031 
Q 669 -1331 103 -1331 
L -116 -1331 
L -116 -844 
L 38 -844 
Q 366 -844 484 -692 
Q 603 -541 603 -63 
L 603 3500 
z
M 603 4863 
L 1178 4863 
L 1178 4134 
L 603 4134 
L 603 4863 
z
" transform="scale(0.015625)"/>
      <path id="DejaVuSans-74" d="M 1172 4494 
L 1172 3500 
L 2356 3500 
L 2356 3053 
L 1172 3053 
L 1172 1153 
Q 1172 725 1289 603 
Q 1406 481 1766 481 
L 2356 481 
L 2356 0 
L 1766 0 
Q 1100 0 847 248 
Q 594 497 594 1153 
L 594 3053 
L 172 3053 
L 172 3500 
L 594 3500 
L 594 4494 
L 1172 4494 
z
" transform="scale(0.015625)"/>
      <path id="DejaVuSans-52" d="M 2841 2188 
Q 3044 2119 3236 1894 
Q 3428 1669 3622 1275 
L 4263 0 
L 3584 0 
L 2988 1197 
Q 2756 1666 2539 1819 
Q 2322 1972 1947 1972 
L 1259 1972 
L 1259 0 
L 628 0 
L 628 4666 
L 2053 4666 
Q 2853 4666 3247 4331 
Q 3641 3997 3641 3322 
Q 3641 2881 3436 2590 
Q 3231 2300 2841 2188 
z
M 1259 4147 
L 1259 2491 
L 2053 2491 
Q 2509 2491 2742 2702 
Q 2975 2913 2975 3322 
Q 2975 3731 2742 3939 
Q 2509 4147 2053 4147 
L 1259 4147 
z
" transform="scale(0.015625)"/>
      <path id="DejaVuSans-67" d="M 2906 1791 
Q 2906 2416 2648 2759 
Q 2391 3103 1925 3103 
Q 1463 3103 1205 2759 
Q 947 2416 947 1791 
Q 947 1169 1205 825 
Q 1463 481 1925 481 
Q 2391 481 2648 825 
Q 2906 1169 2906 1791 
z
M 3481 434 
Q 3481 -459 3084 -895 
Q 2688 -1331 1869 -1331 
Q 1566 -1331 1297 -1286 
Q 1028 -1241 775 -1147 
L 775 -588 
Q 1028 -725 1275 -790 
Q 1522 -856 1778 -856 
Q 2344 -856 2625 -561 
Q 2906 -266 2906 331 
L 2906 616 
Q 2728 306 2450 153 
Q 2172 0 1784 0 
Q 1141 0 747 490 
Q 353 981 353 1791 
Q 353 2603 747 3093 
Q 1141 3584 1784 3584 
Q 2172 3584 2450 3431 
Q 2728 3278 2906 2969 
L 2906 3500 
L 3481 3500 
L 3481 434 
z
" transform="scale(0.015625)"/>
     </defs>
     <use xlink:href="#DejaVuSans-41"/>
     <use xlink:href="#DejaVuSans-6a" x="68.408203"/>
     <use xlink:href="#DejaVuSans-75" x="96.191406"/>
     <use xlink:href="#DejaVuSans-73" x="159.570312"/>
     <use xlink:href="#DejaVuSans-74" x="211.669922"/>
     <use xlink:href="#DejaVuSans-65" x="250.878906"/>
     <use xlink:href="#DejaVuSans-20" x="312.402344"/>
     <use xlink:href="#DejaVuSans-64" x="344.189453"/>
     <use xlink:href="#DejaVuSans-61" x="407.666016"/>
     <use xlink:href="#DejaVuSans-20" x="468.945312"/>
     <use xlink:href="#DejaVuSans-52" x="500.732422"/>
     <use xlink:href="#DejaVuSans-65" x="565.714844"/>
     <use xlink:href="#DejaVuSans-67" x="627.238281"/>
     <use xlink:href="#DejaVuSans-72" x="690.714844"/>
     <use xlink:href="#DejaVuSans-65" x="729.578125"/>
     <use xlink:href="#DejaVuSans-73" x="791.101562"/>
     <use xlink:href="#DejaVuSans-73" x="843.201172"/>
     <use xlink:href="#DejaVuSans-e3" x="895.300781"/>
     <use xlink:href="#DejaVuSans-6f" x="956.580078"/>
     <use xlink:href="#DejaVuSans-20" x="1017.761719"/>
     <use xlink:href="#DejaVuSans-4c" x="1049.548828"/>
     <use xlink:href="#DejaVuSans-69" x="1105.261719"/>
     <use xlink:href="#DejaVuSans-6e" x="1133.044922"/>
     <use xlink:href="#DejaVuSans-65" x="1196.423828"/>
     <use xlink:href="#DejaVuSans-61" x="1257.947266"/>
     <use xlink:href="#DejaVuSans-72" x="1319.226562"/>
    </g>
   </g>
   <g id="legend_1">
    <g id="patch_7">
     <path d="M 47.603125 60.049062 
L 162.771875 60.049062 
Q 164.771875 60.049062 164.771875 58.049062 
L 164.771875 29.5225 
Q 164.771875 27.5225 162.771875 27.5225 
L 47.603125 27.5225 
Q 45.603125 27.5225 45.603125 29.5225 
L 45.603125 58.049062 
Q 45.603125 60.049062 47.603125 60.049062 
z
" style="fill: #ffffff; opacity: 0.8; stroke: #cccccc; stroke-linejoin: miter"/>
    </g>
    <g id="line2d_17">
     <g>
      <use xlink:href="#m75d730c34e" x="59.603125" y="35.620937" style="fill: #ff0000; stroke: #ff0000"/>
     </g>
    </g>
    <g id="text_18">
     <!-- Dados de treino -->
     <g transform="translate(77.603125 39.120937) scale(0.1 -0.1)">
      <defs>
       <path id="DejaVuSans-44" d="M 1259 4147 
L 1259 519 
L 2022 519 
Q 2988 519 3436 956 
Q 3884 1394 3884 2338 
Q 3884 3275 3436 3711 
Q 2988 4147 2022 4147 
L 1259 4147 
z
M 628 4666 
L 1925 4666 
Q 3281 4666 3915 4102 
Q 4550 3538 4550 2338 
Q 4550 1131 3912 565 
Q 3275 0 1925 0 
L 628 0 
L 628 4666 
z
" transform="scale(0.015625)"/>
      </defs>
      <use xlink:href="#DejaVuSans-44"/>
      <use xlink:href="#DejaVuSans-61" x="77.001953"/>
      <use xlink:href="#DejaVuSans-64" x="138.28125"/>
      <use xlink:href="#DejaVuSans-6f" x="201.757812"/>
      <use xlink:href="#DejaVuSans-73" x="262.939453"/>
      <use xlink:href="#DejaVuSans-20" x="315.039062"/>
      <use xlink:href="#DejaVuSans-64" x="346.826172"/>
      <use xlink:href="#DejaVuSans-65" x="410.302734"/>
      <use xlink:href="#DejaVuSans-20" x="471.826172"/>
      <use xlink:href="#DejaVuSans-74" x="503.613281"/>
      <use xlink:href="#DejaVuSans-72" x="542.822266"/>
      <use xlink:href="#DejaVuSans-65" x="581.685547"/>
      <use xlink:href="#DejaVuSans-69" x="643.208984"/>
      <use xlink:href="#DejaVuSans-6e" x="670.992188"/>
      <use xlink:href="#DejaVuSans-6f" x="734.371094"/>
     </g>
    </g>
    <g id="line2d_18">
     <path d="M 49.603125 50.469375 
L 59.603125 50.469375 
L 69.603125 50.469375 
" style="fill: none; stroke: #0000ff; stroke-width: 2; stroke-linecap: square"/>
    </g>
    <g id="text_19">
     <!-- Regressão linear -->
     <g transform="translate(77.603125 53.969375) scale(0.1 -0.1)">
      <use xlink:href="#DejaVuSans-52"/>
      <use xlink:href="#DejaVuSans-65" x="64.982422"/>
      <use xlink:href="#DejaVuSans-67" x="126.505859"/>
      <use xlink:href="#DejaVuSans-72" x="189.982422"/>
      <use xlink:href="#DejaVuSans-65" x="228.845703"/>
      <use xlink:href="#DejaVuSans-73" x="290.369141"/>
      <use xlink:href="#DejaVuSans-73" x="342.46875"/>
      <use xlink:href="#DejaVuSans-e3" x="394.568359"/>
      <use xlink:href="#DejaVuSans-6f" x="455.847656"/>
      <use xlink:href="#DejaVuSans-20" x="517.029297"/>
      <use xlink:href="#DejaVuSans-6c" x="548.816406"/>
      <use xlink:href="#DejaVuSans-69" x="576.599609"/>
      <use xlink:href="#DejaVuSans-6e" x="604.382812"/>
      <use xlink:href="#DejaVuSans-65" x="667.761719"/>
      <use xlink:href="#DejaVuSans-61" x="729.285156"/>
      <use xlink:href="#DejaVuSans-72" x="790.564453"/>
     </g>
    </g>
   </g>
  </g>
 </g>
 <defs>
  <clipPath id="pa68d0e9b3e">
   <rect x="40.603125" y="22.5225" width="446.4" height="277.2"/>
  </clipPath>
 </defs>
</svg>
